<?xml version="1.0" encoding="iso-8859-1"?>
<!-- Generator: Adobe Illustrator 19.0.0, SVG Export Plug-In . SVG Version: 6.00 Build 0)  -->
<svg version="1.1" id="Layer_1" xmlns="http://www.w3.org/2000/svg" xmlns:xlink="http://www.w3.org/1999/xlink" x="0px" y="0px"
	 viewBox="0 0 512 512" style="enable-background:new 0 0 512 512;" xml:space="preserve">
<g>
	<g>
		<path d="M490.667,0H21.333C9.536,0,0,9.557,0,21.333v469.333C0,502.443,9.536,512,21.333,512h469.333
			c11.797,0,21.333-9.557,21.333-21.333V21.333C512,9.557,502.464,0,490.667,0z M399.083,207.083L249.749,356.416
			c-4.011,4.011-9.429,6.251-15.083,6.251c-0.491,0-1.003-0.021-1.515-0.043c-6.165-0.448-11.84-3.541-15.552-8.491l-64-85.333
			c-7.083-9.429-5.163-22.805,4.267-29.867c9.429-7.083,22.805-5.163,29.867,4.267l49.237,65.664l131.947-131.947
			c8.341-8.341,21.824-8.341,30.165,0C407.424,185.259,407.424,198.741,399.083,207.083z"/>
	</g>
</g>
<g>
</g>
<g>
</g>
<g>
</g>
<g>
</g>
<g>
</g>
<g>
</g>
<g>
</g>
<g>
</g>
<g>
</g>
<g>
</g>
<g>
</g>
<g>
</g>
<g>
</g>
<g>
</g>
<g>
</g>
</svg>
