<?xml version="1.0" encoding="iso-8859-1"?>
<!-- Generator: Adobe Illustrator 16.0.0, SVG Export Plug-In . SVG Version: 6.00 Build 0)  -->
<!DOCTYPE svg PUBLIC "-//W3C//DTD SVG 1.1//EN" "http://www.w3.org/Graphics/SVG/1.1/DTD/svg11.dtd">
<svg version="1.1" id="Capa_1" xmlns="http://www.w3.org/2000/svg" xmlns:xlink="http://www.w3.org/1999/xlink" x="0px" y="0px"
	 width="14" height="14" viewBox="0 0 175.721 175.721" style="enable-background:new 0 0 175.721 175.721;"
	 xml:space="preserve">
<g>
	<g>
		<path d="M154.715,43.2l-20.994,9.697c0,0-3.604,0-8.087,0c-0.804,0-1.567,0.453-2.307,1.1V42.156
			c0-10.414-8.442-18.853-18.856-18.853H18.846C8.436,23.304,0,31.743,0,42.156v68.413c0,10.413,8.439,18.853,18.846,18.853h2.531
			l8.347,17.001c3.869,7.864,10.419,8.009,14.635,0.332l9.514-17.329h50.6c10.41,0,18.85-8.439,18.85-18.85V99.201
			c0.739,0.65,1.506,1.095,2.307,1.095h8.09c0,0,9.394,4.172,20.998,9.322c11.615,5.146,21.006-9.802,21.006-33.385
			C175.721,52.622,166.334,37.812,154.715,43.2z M25.651,86.254c-5.802,0-10.504-4.702-10.504-10.506
			c0-5.803,4.702-10.506,10.504-10.506c5.804,0,10.506,4.704,10.506,10.506C36.157,81.552,31.455,86.254,25.651,86.254z
			 M62.071,86.254c-5.802,0-10.506-4.702-10.506-10.506c0-5.803,4.704-10.506,10.506-10.506c5.804,0,10.506,4.704,10.506,10.506
			C72.577,81.552,67.875,86.254,62.071,86.254z M98.49,86.254c-5.801,0-10.505-4.702-10.505-10.506
			c0-5.803,4.704-10.506,10.505-10.506c5.804,0,10.513,4.704,10.513,10.506C109.002,81.552,104.293,86.254,98.49,86.254z"/>
	</g>
</g>
<g>
</g>
<g>
</g>
<g>
</g>
<g>
</g>
<g>
</g>
<g>
</g>
<g>
</g>
<g>
</g>
<g>
</g>
<g>
</g>
<g>
</g>
<g>
</g>
<g>
</g>
<g>
</g>
<g>
</g>
</svg>
